<svg width="136" height="16" viewBox="0 0 136 16" fill="none" xmlns="http://www.w3.org/2000/svg">
<path d="M15.5686 7.25665C15.748 7.11661 15.8811 6.92126 15.9492 6.69798C16.0172 6.47469 16.0169 6.23468 15.9483 6.01159C15.8796 5.7885 15.746 5.59353 15.5663 5.454C15.3865 5.31447 15.1696 5.23738 14.9459 5.23356L10.6017 5.06159C10.5803 5.06005 10.5599 5.05207 10.5427 5.03861C10.5256 5.02514 10.5126 5.00678 10.5052 4.98573L9.004 0.73724C8.92857 0.521093 8.79158 0.334452 8.61157 0.202586C8.43156 0.0707203 8.21723 0 7.99759 0C7.77795 0 7.56361 0.0707203 7.3836 0.202586C7.20359 0.334452 7.0666 0.521093 6.99118 0.73724L5.49483 5.0009C5.48744 5.02195 5.47439 5.04032 5.45726 5.05378C5.44013 5.06724 5.41965 5.07522 5.39829 5.07677L1.05408 5.24873C0.830399 5.25256 0.613474 5.32964 0.433718 5.46917C0.253961 5.6087 0.120387 5.80368 0.0517238 6.02677C-0.0169391 6.24986 -0.0172472 6.48987 0.0508428 6.71315C0.118933 6.93643 0.252006 7.13178 0.431404 7.27182L3.8392 10.0789C3.85626 10.0929 3.86901 10.1119 3.87587 10.1335C3.88273 10.1551 3.88341 10.1783 3.87782 10.2002L2.70488 14.5549C2.6441 14.7767 2.64999 15.0127 2.72174 15.2308C2.7935 15.4489 2.92764 15.6386 3.10592 15.774C3.2842 15.9094 3.49796 15.984 3.71812 15.9876C3.93828 15.9912 4.15416 15.9236 4.33637 15.7941L7.93725 13.2652C7.95499 13.2524 7.97603 13.2455 7.99759 13.2455C8.01914 13.2455 8.04019 13.2524 8.05792 13.2652L11.6588 15.7941C11.8386 15.928 12.0537 16 12.2742 16C12.4948 16 12.7099 15.928 12.8897 15.7941C13.068 15.66 13.2023 15.4712 13.274 15.2538C13.3457 15.0365 13.3514 14.8011 13.2903 14.5802L12.1077 10.2104C12.1014 10.1884 12.1018 10.165 12.1087 10.1433C12.1156 10.1215 12.1287 10.1026 12.1463 10.089L15.5686 7.25665Z" fill="#098A5B"/>
<path d="M45.5686 7.25665C45.748 7.11661 45.8811 6.92126 45.9492 6.69798C46.0172 6.47469 46.0169 6.23468 45.9483 6.01159C45.8796 5.7885 45.746 5.59353 45.5663 5.454C45.3865 5.31447 45.1696 5.23738 44.9459 5.23356L40.6017 5.06159C40.5803 5.06005 40.5599 5.05207 40.5427 5.03861C40.5256 5.02514 40.5126 5.00678 40.5052 4.98573L39.004 0.73724C38.9286 0.521093 38.7916 0.334452 38.6116 0.202586C38.4316 0.0707203 38.2172 0 37.9976 0C37.7779 0 37.5636 0.0707203 37.3836 0.202586C37.2036 0.334452 37.0666 0.521093 36.9912 0.73724L35.4948 5.0009C35.4874 5.02195 35.4744 5.04032 35.4573 5.05378C35.4401 5.06724 35.4197 5.07522 35.3983 5.07677L31.0541 5.24873C30.8304 5.25256 30.6135 5.32964 30.4337 5.46917C30.254 5.6087 30.1204 5.80368 30.0517 6.02677C29.9831 6.24986 29.9828 6.48987 30.0508 6.71315C30.1189 6.93643 30.252 7.13178 30.4314 7.27182L33.8392 10.0789C33.8563 10.0929 33.869 10.1119 33.8759 10.1335C33.8827 10.1551 33.8834 10.1783 33.8778 10.2002L32.7049 14.5549C32.6441 14.7767 32.65 15.0127 32.7217 15.2308C32.7935 15.4489 32.9276 15.6386 33.1059 15.774C33.2842 15.9094 33.498 15.984 33.7181 15.9876C33.9383 15.9912 34.1542 15.9236 34.3364 15.7941L37.9373 13.2652C37.955 13.2524 37.976 13.2455 37.9976 13.2455C38.0191 13.2455 38.0402 13.2524 38.0579 13.2652L41.6588 15.7941C41.8386 15.928 42.0537 16 42.2742 16C42.4948 16 42.7099 15.928 42.8897 15.7941C43.068 15.66 43.2023 15.4712 43.274 15.2538C43.3457 15.0365 43.3514 14.8011 43.2903 14.5802L42.1077 10.2104C42.1014 10.1884 42.1018 10.165 42.1087 10.1433C42.1156 10.1215 42.1287 10.1026 42.1463 10.089L45.5686 7.25665Z" fill="#098A5B"/>
<path d="M75.5686 7.25665C75.748 7.11661 75.8811 6.92126 75.9492 6.69798C76.0172 6.47469 76.0169 6.23468 75.9483 6.01159C75.8796 5.7885 75.746 5.59353 75.5663 5.454C75.3865 5.31447 75.1696 5.23738 74.9459 5.23356L70.6017 5.06159C70.5803 5.06005 70.5599 5.05207 70.5427 5.03861C70.5256 5.02514 70.5126 5.00678 70.5052 4.98573L69.004 0.73724C68.9286 0.521093 68.7916 0.334452 68.6116 0.202586C68.4316 0.0707203 68.2172 0 67.9976 0C67.7779 0 67.5636 0.0707203 67.3836 0.202586C67.2036 0.334452 67.0666 0.521093 66.9912 0.73724L65.4948 5.0009C65.4874 5.02195 65.4744 5.04032 65.4573 5.05378C65.4401 5.06724 65.4197 5.07522 65.3983 5.07677L61.0541 5.24873C60.8304 5.25256 60.6135 5.32964 60.4337 5.46917C60.254 5.6087 60.1204 5.80368 60.0517 6.02677C59.9831 6.24986 59.9828 6.48987 60.0508 6.71315C60.1189 6.93643 60.252 7.13178 60.4314 7.27182L63.8392 10.0789C63.8563 10.0929 63.869 10.1119 63.8759 10.1335C63.8827 10.1551 63.8834 10.1783 63.8778 10.2002L62.7049 14.5549C62.6441 14.7767 62.65 15.0127 62.7217 15.2308C62.7935 15.4489 62.9276 15.6386 63.1059 15.774C63.2842 15.9094 63.498 15.984 63.7181 15.9876C63.9383 15.9912 64.1542 15.9236 64.3364 15.7941L67.9373 13.2652C67.955 13.2524 67.976 13.2455 67.9976 13.2455C68.0191 13.2455 68.0402 13.2524 68.0579 13.2652L71.6588 15.7941C71.8386 15.928 72.0537 16 72.2742 16C72.4948 16 72.7099 15.928 72.8897 15.7941C73.068 15.66 73.2023 15.4712 73.274 15.2538C73.3457 15.0365 73.3514 14.8011 73.2903 14.5802L72.1077 10.2104C72.1014 10.1884 72.1018 10.165 72.1087 10.1433C72.1156 10.1215 72.1287 10.1026 72.1463 10.089L75.5686 7.25665Z" fill="#098A5B"/>
<path d="M105.569 7.25665C105.748 7.11661 105.881 6.92126 105.949 6.69798C106.017 6.47469 106.017 6.23468 105.948 6.01159C105.88 5.7885 105.746 5.59353 105.566 5.454C105.387 5.31447 105.17 5.23738 104.946 5.23356L100.602 5.06159C100.58 5.06005 100.56 5.05207 100.543 5.03861C100.526 5.02514 100.513 5.00678 100.505 4.98573L99.004 0.73724C98.9286 0.521093 98.7916 0.334452 98.6116 0.202586C98.4316 0.0707203 98.2172 0 97.9976 0C97.7779 0 97.5636 0.0707203 97.3836 0.202586C97.2036 0.334452 97.0666 0.521093 96.9912 0.73724L95.4948 5.0009C95.4874 5.02195 95.4744 5.04032 95.4573 5.05378C95.4401 5.06724 95.4197 5.07522 95.3983 5.07677L91.0541 5.24873C90.8304 5.25256 90.6135 5.32964 90.4337 5.46917C90.254 5.6087 90.1204 5.80368 90.0517 6.02677C89.9831 6.24986 89.9828 6.48987 90.0508 6.71315C90.1189 6.93643 90.252 7.13178 90.4314 7.27182L93.8392 10.0789C93.8563 10.0929 93.869 10.1119 93.8759 10.1335C93.8827 10.1551 93.8834 10.1783 93.8778 10.2002L92.7049 14.5549C92.6441 14.7767 92.65 15.0127 92.7217 15.2308C92.7935 15.4489 92.9276 15.6386 93.1059 15.774C93.2842 15.9094 93.498 15.984 93.7181 15.9876C93.9383 15.9912 94.1542 15.9236 94.3364 15.7941L97.9373 13.2652C97.955 13.2524 97.976 13.2455 97.9976 13.2455C98.0191 13.2455 98.0402 13.2524 98.0579 13.2652L101.659 15.7941C101.839 15.928 102.054 16 102.274 16C102.495 16 102.71 15.928 102.89 15.7941C103.068 15.66 103.202 15.4712 103.274 15.2538C103.346 15.0365 103.351 14.8011 103.29 14.5802L102.108 10.2104C102.101 10.1884 102.102 10.165 102.109 10.1433C102.116 10.1215 102.129 10.1026 102.146 10.089L105.569 7.25665Z" fill="#098A5B"/>
<path d="M135.569 7.25665C135.748 7.11661 135.881 6.92126 135.949 6.69798C136.017 6.47469 136.017 6.23468 135.948 6.01159C135.88 5.7885 135.746 5.59353 135.566 5.454C135.387 5.31447 135.17 5.23738 134.946 5.23356L130.602 5.06159C130.58 5.06005 130.56 5.05207 130.543 5.03861C130.526 5.02514 130.513 5.00678 130.505 4.98573L129.004 0.73724C128.929 0.521093 128.792 0.334452 128.612 0.202586C128.432 0.0707203 128.217 0 127.998 0C127.778 0 127.564 0.0707203 127.384 0.202586C127.204 0.334452 127.067 0.521093 126.991 0.73724L125.495 5.0009C125.487 5.02195 125.474 5.04032 125.457 5.05378C125.44 5.06724 125.42 5.07522 125.398 5.07677L121.054 5.24873C120.83 5.25256 120.613 5.32964 120.434 5.46917C120.254 5.6087 120.12 5.80368 120.052 6.02677C119.983 6.24986 119.983 6.48987 120.051 6.71315C120.119 6.93643 120.252 7.13178 120.431 7.27182L123.839 10.0789C123.856 10.0929 123.869 10.1119 123.876 10.1335C123.883 10.1551 123.883 10.1783 123.878 10.2002L122.705 14.5549C122.644 14.7767 122.65 15.0127 122.722 15.2308C122.794 15.4489 122.928 15.6386 123.106 15.774C123.284 15.9094 123.498 15.984 123.718 15.9876C123.938 15.9912 124.154 15.9236 124.336 15.7941L127.937 13.2652C127.955 13.2524 127.976 13.2455 127.998 13.2455C128.019 13.2455 128.04 13.2524 128.058 13.2652L131.659 15.7941C131.839 15.928 132.054 16 132.274 16C132.495 16 132.71 15.928 132.89 15.7941C133.068 15.66 133.202 15.4712 133.274 15.2538C133.346 15.0365 133.351 14.8011 133.29 14.5802L132.108 10.2104C132.101 10.1884 132.102 10.165 132.109 10.1433C132.116 10.1215 132.129 10.1026 132.146 10.089L135.569 7.25665Z" fill="#098A5B"/>
</svg>
