<svg width="26" height="22" viewBox="0 0 26 22" fill="none" xmlns="http://www.w3.org/2000/svg">
<g filter="url(#filter0_d_8_253)">
<path d="M20.2 14H5.8C5.32261 14 4.86477 13.8156 4.52721 13.4874C4.18964 13.1592 4 12.7141 4 12.25V1.67388C4.02019 1.22307 4.21871 0.797264 4.55411 0.485363C4.88951 0.173462 5.33587 -0.000426334 5.8 7.8498e-07H20.2C20.6774 7.8498e-07 21.1352 0.184375 21.4728 0.512564C21.8104 0.840752 22 1.28587 22 1.75V12.25C22 12.7141 21.8104 13.1592 21.4728 13.4874C21.1352 13.8156 20.6774 14 20.2 14ZM5.8 3.3845V12.25H20.2V3.3845L13 8.05L5.8 3.3845ZM6.52 1.75L13 5.95L19.48 1.75H6.52Z" fill="#098A5B"/>
</g>
<defs>
<filter id="filter0_d_8_253" x="0" y="0" width="26" height="22" filterUnits="userSpaceOnUse" color-interpolation-filters="sRGB">
<feFlood flood-opacity="0" result="BackgroundImageFix"/>
<feColorMatrix in="SourceAlpha" type="matrix" values="0 0 0 0 0 0 0 0 0 0 0 0 0 0 0 0 0 0 127 0" result="hardAlpha"/>
<feOffset dy="4"/>
<feGaussianBlur stdDeviation="2"/>
<feComposite in2="hardAlpha" operator="out"/>
<feColorMatrix type="matrix" values="0 0 0 0 0 0 0 0 0 0 0 0 0 0 0 0 0 0 0.25 0"/>
<feBlend mode="normal" in2="BackgroundImageFix" result="effect1_dropShadow_8_253"/>
<feBlend mode="normal" in="SourceGraphic" in2="effect1_dropShadow_8_253" result="shape"/>
</filter>
</defs>
</svg>
