<svg width="16" height="20" viewBox="0 0 16 20" fill="none" xmlns="http://www.w3.org/2000/svg">
<path d="M8.44376 6.93268L7.10112 8.19454C7.27705 8.82931 7.52509 9.44106 7.84022 10.0174C8.16672 10.5871 8.5609 11.1136 9.01387 11.5853L10.7539 11.0243C11.2308 10.8713 11.7419 10.8675 12.221 11.0133C12.7001 11.1592 13.1251 11.4479 13.4411 11.8422L14.4327 13.0738C14.8352 13.5739 15.036 14.2106 14.9947 14.8555C14.9533 15.5003 14.6728 16.1052 14.2099 16.5477C12.5942 18.0892 10.104 18.6124 8.23948 17.0804C6.59437 15.722 5.20888 14.0674 4.15213 12.1992C3.08302 10.3261 2.36931 8.26535 2.0481 6.12419C1.68969 3.70625 3.38332 1.77191 5.49106 1.11076C6.0987 0.921648 6.75444 0.976164 7.32383 1.26312C7.89322 1.55009 8.33311 2.04775 8.55332 2.65408L9.09744 4.14262C9.27303 4.621 9.30481 5.1417 9.18875 5.63851C9.07268 6.13531 8.81401 6.5858 8.44561 6.93268H8.44376Z" stroke="#098A5B" stroke-width="2"/>
</svg>
